<svg width="465" height="17" viewBox="0 0 465 17" fill="none" xmlns="http://www.w3.org/2000/svg">
<path d="M2.254 13H1.092V3.662H7.21V4.698H2.254V13ZM12.6991 13H11.6491V12.23C11.0798 12.8553 10.3331 13.168 9.40909 13.168C8.78376 13.168 8.23309 12.9673 7.75709 12.566C7.28109 12.1647 7.04309 11.6187 7.04309 10.928C7.04309 10.2187 7.27643 9.67267 7.74309 9.29C8.21909 8.898 8.77443 8.702 9.40909 8.702C10.3704 8.702 11.1171 9.01 11.6491 9.626V8.408C11.6491 7.96 11.4904 7.61 11.1731 7.358C10.8558 7.106 10.4451 6.98 9.94109 6.98C9.14776 6.98 8.45709 7.29267 7.86909 7.918L7.37909 7.19C8.09776 6.44333 8.99843 6.07 10.0811 6.07C10.8558 6.07 11.4858 6.25667 11.9711 6.63C12.4564 7.00333 12.6991 7.57733 12.6991 8.352V13ZM9.78709 12.412C10.6271 12.412 11.2478 12.132 11.6491 11.572V10.298C11.2478 9.738 10.6271 9.458 9.78709 9.458C9.30176 9.458 8.90043 9.598 8.58309 9.878C8.27509 10.1487 8.12109 10.5033 8.12109 10.942C8.12109 11.3713 8.27509 11.726 8.58309 12.006C8.90043 12.2767 9.30176 12.412 9.78709 12.412ZM18.1359 13.168C17.1839 13.168 16.4232 12.7713 15.8539 11.978V15.576H14.8039V6.238H15.8539V7.246C16.1059 6.89133 16.4326 6.60667 16.8339 6.392C17.2352 6.17733 17.6692 6.07 18.1359 6.07C19.0319 6.07 19.7552 6.392 20.3059 7.036C20.8659 7.67067 21.1459 8.52933 21.1459 9.612C21.1459 10.6947 20.8659 11.558 20.3059 12.202C19.7552 12.846 19.0319 13.168 18.1359 13.168ZM17.8699 12.23C18.5326 12.23 19.0599 11.9873 19.4519 11.502C19.8439 11.0073 20.0399 10.3773 20.0399 9.612C20.0399 8.84667 19.8439 8.22133 19.4519 7.736C19.0599 7.25067 18.5326 7.008 17.8699 7.008C17.4686 7.008 17.0766 7.11533 16.6939 7.33C16.3206 7.53533 16.0406 7.78733 15.8539 8.086V11.138C16.0406 11.446 16.3206 11.7073 16.6939 11.922C17.0766 12.1273 17.4686 12.23 17.8699 12.23ZM28.0936 13H27.0436V12.23C26.4743 12.8553 25.7276 13.168 24.8036 13.168C24.1783 13.168 23.6276 12.9673 23.1516 12.566C22.6756 12.1647 22.4376 11.6187 22.4376 10.928C22.4376 10.2187 22.671 9.67267 23.1376 9.29C23.6136 8.898 24.169 8.702 24.8036 8.702C25.765 8.702 26.5116 9.01 27.0436 9.626V8.408C27.0436 7.96 26.885 7.61 26.5676 7.358C26.2503 7.106 25.8396 6.98 25.3356 6.98C24.5423 6.98 23.8516 7.29267 23.2636 7.918L22.7736 7.19C23.4923 6.44333 24.393 6.07 25.4756 6.07C26.2503 6.07 26.8803 6.25667 27.3656 6.63C27.851 7.00333 28.0936 7.57733 28.0936 8.352V13ZM25.1816 12.412C26.0216 12.412 26.6423 12.132 27.0436 11.572V10.298C26.6423 9.738 26.0216 9.458 25.1816 9.458C24.6963 9.458 24.295 9.598 23.9776 9.878C23.6696 10.1487 23.5156 10.5033 23.5156 10.942C23.5156 11.3713 23.6696 11.726 23.9776 12.006C24.295 12.2767 24.6963 12.412 25.1816 12.412ZM31.2484 13H30.1984V6.238H31.2484V9.052H34.7764V6.238H35.8264V13H34.7764V9.976H31.2484V13ZM40.205 13H39.155V7.162H37.195V6.238H42.179V7.162H40.205V13ZM44.5639 13H43.5559V6.238H44.6059V11.404L48.1479 6.238H49.1839V13H48.1339V7.736L44.5639 13ZM52.2885 13H51.0565L52.8625 10.34C52.3491 10.2747 51.9291 10.06 51.6025 9.696C51.2851 9.332 51.1265 8.87 51.1265 8.31C51.1265 7.71267 51.3178 7.218 51.7005 6.826C52.0831 6.434 52.6058 6.238 53.2685 6.238H56.8385V13H55.7885V10.382H53.9405L52.2885 13ZM53.3805 9.458H55.7885V7.162H53.3805C53.0165 7.162 52.7271 7.26933 52.5125 7.484C52.3071 7.68933 52.2045 7.96467 52.2045 8.31C52.2045 8.65533 52.3071 8.93533 52.5125 9.15C52.7178 9.35533 53.0071 9.458 53.3805 9.458ZM65.5281 13.168C64.5294 13.168 63.7174 12.832 63.0921 12.16C62.4668 11.4787 62.1541 10.6293 62.1541 9.612C62.1541 8.59467 62.4668 7.75 63.0921 7.078C63.7174 6.406 64.5294 6.07 65.5281 6.07C66.5734 6.07 67.3994 6.462 68.0061 7.246L67.3061 7.89C66.8768 7.302 66.3028 7.008 65.5841 7.008C64.8748 7.008 64.3054 7.25067 63.8761 7.736C63.4561 8.22133 63.2461 8.84667 63.2461 9.612C63.2461 10.3773 63.4561 11.0073 63.8761 11.502C64.3054 11.9873 64.8748 12.23 65.5841 12.23C66.2934 12.23 66.8674 11.936 67.3061 11.348L68.0061 11.992C67.3994 12.776 66.5734 13.168 65.5281 13.168ZM73.2717 13H69.4777V6.238H73.2017C73.7897 6.238 74.2517 6.39667 74.5877 6.714C74.9331 7.03133 75.1057 7.45133 75.1057 7.974C75.1057 8.35667 74.9984 8.688 74.7837 8.968C74.5784 9.23867 74.3217 9.42067 74.0137 9.514C74.3591 9.598 74.6484 9.79867 74.8817 10.116C75.1244 10.4333 75.2457 10.7833 75.2457 11.166C75.2457 11.7167 75.0684 12.16 74.7137 12.496C74.3684 12.832 73.8877 13 73.2717 13ZM73.0617 12.076C73.3977 12.076 73.6637 11.9827 73.8597 11.796C74.0557 11.6093 74.1537 11.3573 74.1537 11.04C74.1537 10.7507 74.0557 10.5033 73.8597 10.298C73.6637 10.0927 73.3977 9.99 73.0617 9.99H70.5277V12.076H73.0617ZM73.0197 9.066C73.3371 9.066 73.5844 8.982 73.7617 8.814C73.9391 8.63667 74.0277 8.408 74.0277 8.128C74.0277 7.82933 73.9391 7.596 73.7617 7.428C73.5844 7.25067 73.3371 7.162 73.0197 7.162H70.5277V9.066H73.0197ZM80.2817 13.168C79.2737 13.168 78.4477 12.8413 77.8037 12.188C77.1597 11.5253 76.8377 10.6667 76.8377 9.612C76.8377 8.62267 77.155 7.78733 77.7897 7.106C78.4244 6.41533 79.2177 6.07 80.1697 6.07C81.1684 6.07 81.957 6.41533 82.5357 7.106C83.1237 7.78733 83.4177 8.65067 83.4177 9.696V9.962H77.9437C77.9904 10.6247 78.233 11.18 78.6717 11.628C79.1104 12.076 79.6797 12.3 80.3797 12.3C81.2197 12.3 81.915 12.0153 82.4657 11.446L82.9697 12.132C82.279 12.8227 81.383 13.168 80.2817 13.168ZM82.3817 9.192C82.3724 8.61333 82.1764 8.09533 81.7937 7.638C81.411 7.17133 80.865 6.938 80.1557 6.938C79.4837 6.938 78.9517 7.16667 78.5597 7.624C78.177 8.08133 77.9717 8.604 77.9437 9.192H82.3817ZM85.6084 13H84.2644L87.2744 9.304L84.2784 6.238H85.6084L88.5204 9.22V6.238H89.5704V9.206L92.4824 6.238H93.8124L90.8024 9.304L93.8264 13H92.4824L90.0464 9.962L89.5704 10.438V13H88.5204V10.438L88.0444 9.962L85.6084 13ZM98.0825 13.168C97.0745 13.168 96.2485 12.8413 95.6045 12.188C94.9605 11.5253 94.6385 10.6667 94.6385 9.612C94.6385 8.62267 94.9558 7.78733 95.5905 7.106C96.2251 6.41533 97.0185 6.07 97.9705 6.07C98.9691 6.07 99.7578 6.41533 100.336 7.106C100.924 7.78733 101.218 8.65067 101.218 9.696V9.962H95.7445C95.7911 10.6247 96.0338 11.18 96.4725 11.628C96.9111 12.076 97.4805 12.3 98.1805 12.3C99.0205 12.3 99.7158 12.0153 100.266 11.446L100.77 12.132C100.08 12.8227 99.1838 13.168 98.0825 13.168ZM100.182 9.192C100.173 8.61333 99.9771 8.09533 99.5945 7.638C99.2118 7.17133 98.6658 6.938 97.9565 6.938C97.2845 6.938 96.7525 7.16667 96.3605 7.624C95.9778 8.08133 95.7725 8.604 95.7445 9.192H100.182ZM105.901 13.168C104.902 13.168 104.09 12.832 103.465 12.16C102.84 11.4787 102.527 10.6293 102.527 9.612C102.527 8.59467 102.84 7.75 103.465 7.078C104.09 6.406 104.902 6.07 105.901 6.07C106.946 6.07 107.772 6.462 108.379 7.246L107.679 7.89C107.25 7.302 106.676 7.008 105.957 7.008C105.248 7.008 104.678 7.25067 104.249 7.736C103.829 8.22133 103.619 8.84667 103.619 9.612C103.619 10.3773 103.829 11.0073 104.249 11.502C104.678 11.9873 105.248 12.23 105.957 12.23C106.666 12.23 107.24 11.936 107.679 11.348L108.379 11.992C107.772 12.776 106.946 13.168 105.901 13.168ZM112.133 13H111.083V7.162H109.123V6.238H114.107V7.162H112.133V13ZM116.492 13H115.484V6.238H116.534V11.404L120.076 6.238H121.112V13H120.062V7.736L116.492 13Z" fill="black" fill-opacity="0.79"/>
<path d="M137.448 14.722V12.062C137.859 12.034 138.185 11.936 138.428 11.768C138.671 11.6 138.89 11.2453 139.086 10.704C139.291 10.1627 139.459 9.37867 139.59 8.352L140.164 3.662H145.876V11.964H146.73V14.722H145.568V13H138.61V14.722H137.448ZM140.738 8.436C140.523 10.2373 140.047 11.4133 139.31 11.964H144.714V4.698H141.2L140.738 8.436ZM153.543 12.146C152.937 12.8273 152.129 13.168 151.121 13.168C150.113 13.168 149.301 12.8273 148.685 12.146C148.079 11.4647 147.775 10.62 147.775 9.612C147.775 8.604 148.079 7.764 148.685 7.092C149.301 6.41067 150.113 6.07 151.121 6.07C152.129 6.07 152.937 6.41067 153.543 7.092C154.159 7.764 154.467 8.604 154.467 9.612C154.467 10.62 154.159 11.4647 153.543 12.146ZM149.469 11.474C149.88 11.978 150.431 12.23 151.121 12.23C151.812 12.23 152.358 11.978 152.759 11.474C153.161 10.9607 153.361 10.34 153.361 9.612C153.361 8.884 153.161 8.268 152.759 7.764C152.358 7.26 151.812 7.008 151.121 7.008C150.431 7.008 149.88 7.26467 149.469 7.778C149.068 8.282 148.867 8.89333 148.867 9.612C148.867 10.34 149.068 10.9607 149.469 11.474ZM159.161 13.168C158.162 13.168 157.35 12.832 156.725 12.16C156.1 11.4787 155.787 10.6293 155.787 9.612C155.787 8.59467 156.1 7.75 156.725 7.078C157.35 6.406 158.162 6.07 159.161 6.07C160.206 6.07 161.032 6.462 161.639 7.246L160.939 7.89C160.51 7.302 159.936 7.008 159.217 7.008C158.508 7.008 157.938 7.25067 157.509 7.736C157.089 8.22133 156.879 8.84667 156.879 9.612C156.879 10.3773 157.089 11.0073 157.509 11.502C157.938 11.9873 158.508 12.23 159.217 12.23C159.926 12.23 160.5 11.936 160.939 11.348L161.639 11.992C161.032 12.776 160.206 13.168 159.161 13.168ZM165.393 13H164.343V7.162H162.383V6.238H167.367V7.162H165.393V13ZM174.021 13H172.971V12.23C172.402 12.8553 171.655 13.168 170.731 13.168C170.106 13.168 169.555 12.9673 169.079 12.566C168.603 12.1647 168.365 11.6187 168.365 10.928C168.365 10.2187 168.599 9.67267 169.065 9.29C169.541 8.898 170.097 8.702 170.731 8.702C171.693 8.702 172.439 9.01 172.971 9.626V8.408C172.971 7.96 172.813 7.61 172.495 7.358C172.178 7.106 171.767 6.98 171.263 6.98C170.47 6.98 169.779 7.29267 169.191 7.918L168.701 7.19C169.42 6.44333 170.321 6.07 171.403 6.07C172.178 6.07 172.808 6.25667 173.293 6.63C173.779 7.00333 174.021 7.57733 174.021 8.352V13ZM171.109 12.412C171.949 12.412 172.57 12.132 172.971 11.572V10.298C172.57 9.738 171.949 9.458 171.109 9.458C170.624 9.458 170.223 9.598 169.905 9.878C169.597 10.1487 169.443 10.5033 169.443 10.942C169.443 11.3713 169.597 11.726 169.905 12.006C170.223 12.2767 170.624 12.412 171.109 12.412ZM179.92 13H176.126V6.238H179.85C180.438 6.238 180.9 6.39667 181.236 6.714C181.582 7.03133 181.754 7.45133 181.754 7.974C181.754 8.35667 181.647 8.688 181.432 8.968C181.227 9.23867 180.97 9.42067 180.662 9.514C181.008 9.598 181.297 9.79867 181.53 10.116C181.773 10.4333 181.894 10.7833 181.894 11.166C181.894 11.7167 181.717 12.16 181.362 12.496C181.017 12.832 180.536 13 179.92 13ZM179.71 12.076C180.046 12.076 180.312 11.9827 180.508 11.796C180.704 11.6093 180.802 11.3573 180.802 11.04C180.802 10.7507 180.704 10.5033 180.508 10.298C180.312 10.0927 180.046 9.99 179.71 9.99H177.176V12.076H179.71ZM179.668 9.066C179.986 9.066 180.233 8.982 180.41 8.814C180.588 8.63667 180.676 8.408 180.676 8.128C180.676 7.82933 180.588 7.596 180.41 7.428C180.233 7.25067 179.986 7.162 179.668 7.162H177.176V9.066H179.668ZM189.828 13H188.484L186.048 9.962L184.928 11.068V13H183.878V6.238H184.928V9.836L188.484 6.238H189.814L186.818 9.304L189.828 13ZM196.348 13H195.298V12.23C194.728 12.8553 193.982 13.168 193.058 13.168C192.432 13.168 191.882 12.9673 191.406 12.566C190.93 12.1647 190.692 11.6187 190.692 10.928C190.692 10.2187 190.925 9.67267 191.392 9.29C191.868 8.898 192.423 8.702 193.058 8.702C194.019 8.702 194.766 9.01 195.298 9.626V8.408C195.298 7.96 195.139 7.61 194.822 7.358C194.504 7.106 194.094 6.98 193.59 6.98C192.796 6.98 192.106 7.29267 191.518 7.918L191.028 7.19C191.746 6.44333 192.647 6.07 193.73 6.07C194.504 6.07 195.134 6.25667 195.62 6.63C196.105 7.00333 196.348 7.57733 196.348 8.352V13ZM193.436 12.412C194.276 12.412 194.896 12.132 195.298 11.572V10.298C194.896 9.738 194.276 9.458 193.436 9.458C192.95 9.458 192.549 9.598 192.232 9.878C191.924 10.1487 191.77 10.5033 191.77 10.942C191.77 11.3713 191.924 11.726 192.232 12.006C192.549 12.2767 192.95 12.412 193.436 12.412ZM203.07 13H202.062V6.238H203.112V11.404L206.654 6.238H207.69V13H206.64V7.736L203.07 13ZM218.772 12.146C218.165 12.8273 217.358 13.168 216.35 13.168C215.342 13.168 214.53 12.8273 213.914 12.146C213.307 11.4647 213.004 10.62 213.004 9.612C213.004 8.604 213.307 7.764 213.914 7.092C214.53 6.41067 215.342 6.07 216.35 6.07C217.358 6.07 218.165 6.41067 218.772 7.092C219.388 7.764 219.696 8.604 219.696 9.612C219.696 10.62 219.388 11.4647 218.772 12.146ZM214.698 11.474C215.108 11.978 215.659 12.23 216.35 12.23C217.04 12.23 217.586 11.978 217.988 11.474C218.389 10.9607 218.59 10.34 218.59 9.612C218.59 8.884 218.389 8.268 217.988 7.764C217.586 7.26 217.04 7.008 216.35 7.008C215.659 7.008 215.108 7.26467 214.698 7.778C214.296 8.282 214.096 8.89333 214.096 9.612C214.096 10.34 214.296 10.9607 214.698 11.474ZM227.035 13H225.985V7.162H222.457V13H221.407V6.238H227.035V13ZM228.334 13.168V12.3C228.651 12.3 228.913 12.09 229.118 11.67C229.323 11.25 229.491 10.55 229.622 9.57L230.056 6.238H234.76V13H233.71V7.162H230.98L230.672 9.696C230.523 10.9373 230.261 11.8287 229.888 12.37C229.515 12.902 228.997 13.168 228.334 13.168ZM242.135 13H241.085V12.23C240.515 12.8553 239.769 13.168 238.845 13.168C238.219 13.168 237.669 12.9673 237.193 12.566C236.717 12.1647 236.479 11.6187 236.479 10.928C236.479 10.2187 236.712 9.67267 237.179 9.29C237.655 8.898 238.21 8.702 238.845 8.702C239.806 8.702 240.553 9.01 241.085 9.626V8.408C241.085 7.96 240.926 7.61 240.609 7.358C240.291 7.106 239.881 6.98 239.377 6.98C238.583 6.98 237.893 7.29267 237.305 7.918L236.815 7.19C237.533 6.44333 238.434 6.07 239.517 6.07C240.291 6.07 240.921 6.25667 241.407 6.63C241.892 7.00333 242.135 7.57733 242.135 8.352V13ZM239.223 12.412C240.063 12.412 240.683 12.132 241.085 11.572V10.298C240.683 9.738 240.063 9.458 239.223 9.458C238.737 9.458 238.336 9.598 238.019 9.878C237.711 10.1487 237.557 10.5033 237.557 10.942C237.557 11.3713 237.711 11.726 238.019 12.006C238.336 12.2767 238.737 12.412 239.223 12.412ZM246.521 13H245.471V7.162H243.511V6.238H248.495V7.162H246.521V13ZM255.15 13H254.1V12.23C253.531 12.8553 252.784 13.168 251.86 13.168C251.235 13.168 250.684 12.9673 250.208 12.566C249.732 12.1647 249.494 11.6187 249.494 10.928C249.494 10.2187 249.728 9.67267 250.194 9.29C250.67 8.898 251.226 8.702 251.86 8.702C252.822 8.702 253.568 9.01 254.1 9.626V8.408C254.1 7.96 253.942 7.61 253.624 7.358C253.307 7.106 252.896 6.98 252.392 6.98C251.599 6.98 250.908 7.29267 250.32 7.918L249.83 7.19C250.549 6.44333 251.45 6.07 252.532 6.07C253.307 6.07 253.937 6.25667 254.422 6.63C254.908 7.00333 255.15 7.57733 255.15 8.352V13ZM252.238 12.412C253.078 12.412 253.699 12.132 254.1 11.572V10.298C253.699 9.738 253.078 9.458 252.238 9.458C251.753 9.458 251.352 9.598 251.034 9.878C250.726 10.1487 250.572 10.5033 250.572 10.942C250.572 11.3713 250.726 11.726 251.034 12.006C251.352 12.2767 251.753 12.412 252.238 12.412Z" fill="black" fill-opacity="0.79"/>
<path d="M276.348 13.168C274.976 13.168 273.861 12.7107 273.002 11.796C272.143 10.8813 271.714 9.72867 271.714 8.338C271.714 6.94733 272.143 5.79467 273.002 4.88C273.861 3.96533 274.976 3.508 276.348 3.508C277.711 3.508 278.821 3.96533 279.68 4.88C280.548 5.79467 280.982 6.94733 280.982 8.338C280.982 9.72867 280.548 10.8813 279.68 11.796C278.821 12.7107 277.711 13.168 276.348 13.168ZM276.348 12.132C277.375 12.132 278.201 11.7773 278.826 11.068C279.461 10.3493 279.778 9.43933 279.778 8.338C279.778 7.22733 279.461 6.31733 278.826 5.608C278.201 4.89867 277.375 4.544 276.348 4.544C275.312 4.544 274.481 4.89867 273.856 5.608C273.231 6.31733 272.918 7.22733 272.918 8.338C272.918 9.43933 273.231 10.3493 273.856 11.068C274.481 11.7773 275.312 12.132 276.348 12.132ZM288.383 13H287.333V7.162H283.805V13H282.755V6.238H288.383V13ZM292.762 13H291.712V7.162H289.752V6.238H294.736V7.162H292.762V13ZM301.489 12.146C300.882 12.8273 300.075 13.168 299.067 13.168C298.059 13.168 297.247 12.8273 296.631 12.146C296.024 11.4647 295.721 10.62 295.721 9.612C295.721 8.604 296.024 7.764 296.631 7.092C297.247 6.41067 298.059 6.07 299.067 6.07C300.075 6.07 300.882 6.41067 301.489 7.092C302.105 7.764 302.413 8.604 302.413 9.612C302.413 10.62 302.105 11.4647 301.489 12.146ZM297.415 11.474C297.825 11.978 298.376 12.23 299.067 12.23C299.757 12.23 300.303 11.978 300.705 11.474C301.106 10.9607 301.307 10.34 301.307 9.612C301.307 8.884 301.106 8.268 300.705 7.764C300.303 7.26 299.757 7.008 299.067 7.008C298.376 7.008 297.825 7.26467 297.415 7.778C297.013 8.282 296.812 8.89333 296.812 9.612C296.812 10.34 297.013 10.9607 297.415 11.474ZM307.918 13H304.124V6.238H307.848C308.436 6.238 308.898 6.39667 309.234 6.714C309.58 7.03133 309.752 7.45133 309.752 7.974C309.752 8.35667 309.645 8.688 309.43 8.968C309.225 9.23867 308.968 9.42067 308.66 9.514C309.006 9.598 309.295 9.79867 309.528 10.116C309.771 10.4333 309.892 10.7833 309.892 11.166C309.892 11.7167 309.715 12.16 309.36 12.496C309.015 12.832 308.534 13 307.918 13ZM307.708 12.076C308.044 12.076 308.31 11.9827 308.506 11.796C308.702 11.6093 308.8 11.3573 308.8 11.04C308.8 10.7507 308.702 10.5033 308.506 10.298C308.31 10.0927 308.044 9.99 307.708 9.99H305.174V12.076H307.708ZM307.666 9.066C307.984 9.066 308.231 8.982 308.408 8.814C308.586 8.63667 308.674 8.408 308.674 8.128C308.674 7.82933 308.586 7.596 308.408 7.428C308.231 7.25067 307.984 7.162 307.666 7.162H305.174V9.066H307.666ZM311.876 6.238H312.926V8.856H315.46C316.132 8.856 316.655 9.05667 317.028 9.458C317.402 9.85 317.588 10.34 317.588 10.928C317.588 11.516 317.397 12.0107 317.014 12.412C316.641 12.804 316.123 13 315.46 13H311.876V6.238ZM315.348 9.78H312.926V12.076H315.348C315.722 12.076 316.006 11.9733 316.202 11.768C316.408 11.5533 316.51 11.2733 316.51 10.928C316.51 10.5827 316.408 10.3073 316.202 10.102C316.006 9.88733 315.722 9.78 315.348 9.78ZM319.744 13H318.694V6.238H319.744V13ZM324.895 13.168C323.887 13.168 323.061 12.8413 322.417 12.188C321.773 11.5253 321.451 10.6667 321.451 9.612C321.451 8.62267 321.768 7.78733 322.403 7.106C323.038 6.41533 323.831 6.07 324.783 6.07C325.782 6.07 326.57 6.41533 327.149 7.106C327.737 7.78733 328.031 8.65067 328.031 9.696V9.962H322.557C322.604 10.6247 322.846 11.18 323.285 11.628C323.724 12.076 324.293 12.3 324.993 12.3C325.833 12.3 326.528 12.0153 327.079 11.446L327.583 12.132C326.892 12.8227 325.996 13.168 324.895 13.168ZM326.995 9.192C326.986 8.61333 326.79 8.09533 326.407 7.638C326.024 7.17133 325.478 6.938 324.769 6.938C324.097 6.938 323.565 7.16667 323.173 7.624C322.79 8.08133 322.585 8.604 322.557 9.192H326.995ZM338.969 13H337.919V7.162H334.391V13H333.341V6.238H338.969V13ZM346.442 12.146C345.835 12.8273 345.028 13.168 344.02 13.168C343.012 13.168 342.2 12.8273 341.584 12.146C340.977 11.4647 340.674 10.62 340.674 9.612C340.674 8.604 340.977 7.764 341.584 7.092C342.2 6.41067 343.012 6.07 344.02 6.07C345.028 6.07 345.835 6.41067 346.442 7.092C347.058 7.764 347.366 8.604 347.366 9.612C347.366 10.62 347.058 11.4647 346.442 12.146ZM342.368 11.474C342.778 11.978 343.329 12.23 344.02 12.23C344.71 12.23 345.256 11.978 345.658 11.474C346.059 10.9607 346.26 10.34 346.26 9.612C346.26 8.884 346.059 8.268 345.658 7.764C345.256 7.26 344.71 7.008 344.02 7.008C343.329 7.008 342.778 7.26467 342.368 7.778C341.966 8.282 341.766 8.89333 341.766 9.612C341.766 10.34 341.966 10.9607 342.368 11.474ZM352.059 13.168C351.061 13.168 350.249 12.832 349.623 12.16C348.998 11.4787 348.685 10.6293 348.685 9.612C348.685 8.59467 348.998 7.75 349.623 7.078C350.249 6.406 351.061 6.07 352.059 6.07C353.105 6.07 353.931 6.462 354.537 7.246L353.837 7.89C353.408 7.302 352.834 7.008 352.115 7.008C351.406 7.008 350.837 7.25067 350.407 7.736C349.987 8.22133 349.777 8.84667 349.777 9.612C349.777 10.3773 349.987 11.0073 350.407 11.502C350.837 11.9873 351.406 12.23 352.115 12.23C352.825 12.23 353.399 11.936 353.837 11.348L354.537 11.992C353.931 12.776 353.105 13.168 352.059 13.168ZM358.291 13H357.241V7.162H355.281V6.238H360.265V7.162H358.291V13ZM366.92 13H365.87V12.23C365.3 12.8553 364.554 13.168 363.63 13.168C363.004 13.168 362.454 12.9673 361.978 12.566C361.502 12.1647 361.264 11.6187 361.264 10.928C361.264 10.2187 361.497 9.67267 361.964 9.29C362.44 8.898 362.995 8.702 363.63 8.702C364.591 8.702 365.338 9.01 365.87 9.626V8.408C365.87 7.96 365.711 7.61 365.394 7.358C365.076 7.106 364.666 6.98 364.162 6.98C363.368 6.98 362.678 7.29267 362.09 7.918L361.6 7.19C362.318 6.44333 363.219 6.07 364.302 6.07C365.076 6.07 365.706 6.25667 366.192 6.63C366.677 7.00333 366.92 7.57733 366.92 8.352V13ZM364.008 12.412C364.848 12.412 365.468 12.132 365.87 11.572V10.298C365.468 9.738 364.848 9.458 364.008 9.458C363.522 9.458 363.121 9.598 362.804 9.878C362.496 10.1487 362.342 10.5033 362.342 10.942C362.342 11.3713 362.496 11.726 362.804 12.006C363.121 12.2767 363.522 12.412 364.008 12.412ZM372.819 13H369.025V6.238H372.749C373.337 6.238 373.799 6.39667 374.135 6.714C374.48 7.03133 374.653 7.45133 374.653 7.974C374.653 8.35667 374.545 8.688 374.331 8.968C374.125 9.23867 373.869 9.42067 373.561 9.514C373.906 9.598 374.195 9.79867 374.429 10.116C374.671 10.4333 374.793 10.7833 374.793 11.166C374.793 11.7167 374.615 12.16 374.261 12.496C373.915 12.832 373.435 13 372.819 13ZM372.609 12.076C372.945 12.076 373.211 11.9827 373.407 11.796C373.603 11.6093 373.701 11.3573 373.701 11.04C373.701 10.7507 373.603 10.5033 373.407 10.298C373.211 10.0927 372.945 9.99 372.609 9.99H370.075V12.076H372.609ZM372.567 9.066C372.884 9.066 373.131 8.982 373.309 8.814C373.486 8.63667 373.575 8.408 373.575 8.128C373.575 7.82933 373.486 7.596 373.309 7.428C373.131 7.25067 372.884 7.162 372.567 7.162H370.075V9.066H372.567ZM382.727 13H381.383L378.947 9.962L377.827 11.068V13H376.777V6.238H377.827V9.836L381.383 6.238H382.713L379.717 9.304L382.727 13ZM384.976 13H383.968V6.238H385.018V11.404L388.56 6.238H389.596V13H388.546V7.736L384.976 13Z" fill="black" fill-opacity="0.79"/>
<path d="M413.176 13H411.734L408.192 8.8L407.254 9.864V13H406.092V3.662H407.254V8.492L411.384 3.662H412.84L408.948 8.1L413.176 13ZM419.356 12.146C418.749 12.8273 417.942 13.168 416.934 13.168C415.926 13.168 415.114 12.8273 414.498 12.146C413.891 11.4647 413.588 10.62 413.588 9.612C413.588 8.604 413.891 7.764 414.498 7.092C415.114 6.41067 415.926 6.07 416.934 6.07C417.942 6.07 418.749 6.41067 419.356 7.092C419.972 7.764 420.28 8.604 420.28 9.612C420.28 10.62 419.972 11.4647 419.356 12.146ZM415.282 11.474C415.692 11.978 416.243 12.23 416.934 12.23C417.624 12.23 418.17 11.978 418.572 11.474C418.973 10.9607 419.174 10.34 419.174 9.612C419.174 8.884 418.973 8.268 418.572 7.764C418.17 7.26 417.624 7.008 416.934 7.008C416.243 7.008 415.692 7.26467 415.282 7.778C414.88 8.282 414.68 8.89333 414.68 9.612C414.68 10.34 414.88 10.9607 415.282 11.474ZM423.041 13H421.991V6.238H423.041V9.052H426.569V6.238H427.619V13H426.569V9.976H423.041V13ZM431.998 13H430.948V7.162H428.988V6.238H433.972V7.162H431.998V13ZM440.627 13H439.577V12.23C439.007 12.8553 438.261 13.168 437.337 13.168C436.711 13.168 436.161 12.9673 435.685 12.566C435.209 12.1647 434.971 11.6187 434.971 10.928C434.971 10.2187 435.204 9.67267 435.671 9.29C436.147 8.898 436.702 8.702 437.337 8.702C438.298 8.702 439.045 9.01 439.577 9.626V8.408C439.577 7.96 439.418 7.61 439.101 7.358C438.783 7.106 438.373 6.98 437.869 6.98C437.075 6.98 436.385 7.29267 435.797 7.918L435.307 7.19C436.025 6.44333 436.926 6.07 438.009 6.07C438.783 6.07 439.413 6.25667 439.899 6.63C440.384 7.00333 440.627 7.57733 440.627 8.352V13ZM437.715 12.412C438.555 12.412 439.175 12.132 439.577 11.572V10.298C439.175 9.738 438.555 9.458 437.715 9.458C437.229 9.458 436.828 9.598 436.511 9.878C436.203 10.1487 436.049 10.5033 436.049 10.942C436.049 11.3713 436.203 11.726 436.511 12.006C436.828 12.2767 437.229 12.412 437.715 12.412ZM448.682 13H447.338L444.902 9.962L443.782 11.068V13H442.732V6.238H443.782V9.836L447.338 6.238H448.668L445.672 9.304L448.682 13ZM452.205 13H451.155V7.162H449.195V6.238H454.179V7.162H452.205V13ZM455.556 6.238H456.606V8.856H459.14C459.812 8.856 460.335 9.05667 460.708 9.458C461.081 9.85 461.268 10.34 461.268 10.928C461.268 11.516 461.077 12.0107 460.694 12.412C460.321 12.804 459.803 13 459.14 13H455.556V6.238ZM459.028 9.78H456.606V12.076H459.028C459.401 12.076 459.686 11.9733 459.882 11.768C460.087 11.5533 460.19 11.2733 460.19 10.928C460.19 10.5827 460.087 10.3073 459.882 10.102C459.686 9.88733 459.401 9.78 459.028 9.78ZM463.424 13H462.374V6.238H463.424V13Z" fill="black" fill-opacity="0.79"/>
</svg>
