<svg width="629" height="25" viewBox="0 0 629 25" fill="none" xmlns="http://www.w3.org/2000/svg">
<path d="M16.9508 4.05161C15.6286 2.72867 13.8705 2 12.0007 2C10.1306 2 8.37285 2.72867 7.05064 4.05161C4.60372 6.49952 4.29963 11.1053 6.3921 13.8958L12.0007 22L17.6009 13.9072C19.7018 11.1053 19.3977 6.49952 16.9508 4.05161ZM12.0653 11.4965C10.6566 11.4965 9.50998 10.3493 9.50998 8.93975C9.50998 7.53025 10.6566 6.383 12.0653 6.383C13.474 6.383 14.6207 7.53025 14.6207 8.93975C14.6207 10.3493 13.474 11.4965 12.0653 11.4965Z" stroke="black" stroke-linejoin="round"/>
<path d="M34.516 16.668C33.1533 16.668 32.01 16.22 31.086 15.324C30.1713 14.4187 29.714 13.2567 29.714 11.838C29.714 10.4193 30.1713 9.262 31.086 8.366C32.01 7.46067 33.1533 7.008 34.516 7.008C36.0093 7.008 37.19 7.624 38.058 8.856L37.078 9.402C36.8073 9.00067 36.4433 8.674 35.986 8.422C35.5287 8.17 35.0387 8.044 34.516 8.044C33.4893 8.044 32.6307 8.40333 31.94 9.122C31.2587 9.83133 30.918 10.7367 30.918 11.838C30.918 12.9393 31.2587 13.8493 31.94 14.568C32.6307 15.2773 33.4893 15.632 34.516 15.632C35.0387 15.632 35.5287 15.5107 35.986 15.268C36.4433 15.016 36.8073 14.6847 37.078 14.274L38.072 14.82C37.1667 16.052 35.9813 16.668 34.516 16.668ZM44.7889 16.5H43.7389V15.73C43.1696 16.3553 42.4229 16.668 41.4989 16.668C40.8736 16.668 40.3229 16.4673 39.8469 16.066C39.3709 15.6647 39.1329 15.1187 39.1329 14.428C39.1329 13.7187 39.3663 13.1727 39.8329 12.79C40.3089 12.398 40.8643 12.202 41.4989 12.202C42.4603 12.202 43.2069 12.51 43.7389 13.126V11.908C43.7389 11.46 43.5803 11.11 43.2629 10.858C42.9456 10.606 42.5349 10.48 42.0309 10.48C41.2376 10.48 40.5469 10.7927 39.9589 11.418L39.4689 10.69C40.1876 9.94333 41.0883 9.57 42.1709 9.57C42.9456 9.57 43.5756 9.75667 44.0609 10.13C44.5463 10.5033 44.7889 11.0773 44.7889 11.852V16.5ZM41.8769 15.912C42.7169 15.912 43.3376 15.632 43.7389 15.072V13.798C43.3376 13.238 42.7169 12.958 41.8769 12.958C41.3916 12.958 40.9903 13.098 40.6729 13.378C40.3649 13.6487 40.2109 14.0033 40.2109 14.442C40.2109 14.8713 40.3649 15.226 40.6729 15.506C40.9903 15.7767 41.3916 15.912 41.8769 15.912ZM47.9438 16.5H46.8938V9.738H47.9438V12.552H51.4718V9.738H52.5218V16.5H51.4718V13.476H47.9438V16.5ZM60.5684 16.5H59.2244L56.7884 13.462L55.6684 14.568V16.5H54.6184V9.738H55.6684V13.336L59.2244 9.738H60.5544L57.5584 12.804L60.5684 16.5ZM64.0918 16.5H63.0418V10.662H61.0818V9.738H66.0658V10.662H64.0918V16.5ZM70.1726 13.574H66.8126V12.65H70.1726V13.574ZM79.4658 16.5H78.3038V8.198H72.8438V16.5H71.6818V7.162H79.4658V16.5ZM84.6586 16.668C83.6506 16.668 82.8246 16.3413 82.1806 15.688C81.5366 15.0253 81.2146 14.1667 81.2146 13.112C81.2146 12.1227 81.532 11.2873 82.1666 10.606C82.8013 9.91533 83.5946 9.57 84.5466 9.57C85.5453 9.57 86.334 9.91533 86.9126 10.606C87.5006 11.2873 87.7946 12.1507 87.7946 13.196V13.462H82.3206C82.3673 14.1247 82.61 14.68 83.0486 15.128C83.4873 15.576 84.0566 15.8 84.7566 15.8C85.5966 15.8 86.292 15.5153 86.8426 14.946L87.3466 15.632C86.656 16.3227 85.76 16.668 84.6586 16.668ZM86.7586 12.692C86.7493 12.1133 86.5533 11.5953 86.1706 11.138C85.788 10.6713 85.242 10.438 84.5326 10.438C83.8606 10.438 83.3286 10.6667 82.9366 11.124C82.554 11.5813 82.3486 12.104 82.3206 12.692H86.7586ZM91.7773 16.5H90.7273V10.662H88.7673V9.738H93.7513V10.662H91.7773V16.5ZM98.1801 16.668C97.1721 16.668 96.3461 16.3413 95.7021 15.688C95.0581 15.0253 94.7361 14.1667 94.7361 13.112C94.7361 12.1227 95.0535 11.2873 95.6881 10.606C96.3228 9.91533 97.1161 9.57 98.0681 9.57C99.0668 9.57 99.8555 9.91533 100.434 10.606C101.022 11.2873 101.316 12.1507 101.316 13.196V13.462H95.8421C95.8888 14.1247 96.1315 14.68 96.5701 15.128C97.0088 15.576 97.5781 15.8 98.2781 15.8C99.1181 15.8 99.8135 15.5153 100.364 14.946L100.868 15.632C100.177 16.3227 99.2815 16.668 98.1801 16.668ZM100.28 12.692C100.271 12.1133 100.075 11.5953 99.6921 11.138C99.3095 10.6713 98.7635 10.438 98.0541 10.438C97.3821 10.438 96.8501 10.6667 96.4581 11.124C96.0755 11.5813 95.8701 12.104 95.8421 12.692H100.28ZM106.349 16.668C105.397 16.668 104.636 16.2713 104.067 15.478V19.076H103.017V9.738H104.067V10.746C104.319 10.3913 104.645 10.1067 105.047 9.892C105.448 9.67733 105.882 9.57 106.349 9.57C107.245 9.57 107.968 9.892 108.519 10.536C109.079 11.1707 109.359 12.0293 109.359 13.112C109.359 14.1947 109.079 15.058 108.519 15.702C107.968 16.346 107.245 16.668 106.349 16.668ZM106.083 15.73C106.745 15.73 107.273 15.4873 107.665 15.002C108.057 14.5073 108.253 13.8773 108.253 13.112C108.253 12.3467 108.057 11.7213 107.665 11.236C107.273 10.7507 106.745 10.508 106.083 10.508C105.681 10.508 105.289 10.6153 104.907 10.83C104.533 11.0353 104.253 11.2873 104.067 11.586V14.638C104.253 14.946 104.533 15.2073 104.907 15.422C105.289 15.6273 105.681 15.73 106.083 15.73ZM112.331 14.974C112.741 15.478 113.292 15.73 113.983 15.73C114.673 15.73 115.219 15.478 115.621 14.974C116.022 14.4607 116.223 13.8353 116.223 13.098C116.223 12.3793 116.022 11.768 115.621 11.264C115.219 10.76 114.673 10.508 113.983 10.508C113.292 10.508 112.741 10.76 112.331 11.264C111.929 11.768 111.729 12.3793 111.729 13.098C111.729 13.8353 111.929 14.4607 112.331 14.974ZM113.983 16.668C112.965 16.668 112.153 16.3087 111.547 15.59C110.94 14.8713 110.637 13.9427 110.637 12.804C110.637 11.1987 110.926 10.0133 111.505 9.248C112.083 8.47333 112.975 8.00667 114.179 7.848C114.897 7.736 115.392 7.62867 115.663 7.526C115.943 7.42333 116.083 7.302 116.083 7.162H117.105C117.105 7.42333 117.025 7.652 116.867 7.848C116.708 8.03467 116.479 8.184 116.181 8.296C115.891 8.408 115.616 8.49667 115.355 8.562C115.103 8.618 114.799 8.66933 114.445 8.716C113.511 8.84667 112.835 9.10333 112.415 9.486C112.004 9.86867 111.733 10.3773 111.603 11.012C112.219 10.0507 113.068 9.57 114.151 9.57C115.084 9.57 115.845 9.91067 116.433 10.592C117.021 11.2733 117.315 12.1087 117.315 13.098C117.315 14.106 117.011 14.9553 116.405 15.646C115.798 16.3273 114.991 16.668 113.983 16.668ZM118.731 19.146L118.899 18.194C119.067 18.2687 119.258 18.306 119.473 18.306C119.715 18.306 119.916 18.2547 120.075 18.152C120.233 18.0493 120.369 17.8627 120.481 17.592L120.929 16.57L118.101 9.738H119.235L121.489 15.282L123.729 9.738H124.877L121.489 17.872C121.115 18.768 120.453 19.2253 119.501 19.244C119.221 19.244 118.964 19.2113 118.731 19.146ZM129.304 16.668C128.352 16.668 127.591 16.2713 127.022 15.478V19.076H125.972V9.738H127.022V10.746C127.274 10.3913 127.601 10.1067 128.002 9.892C128.403 9.67733 128.837 9.57 129.304 9.57C130.2 9.57 130.923 9.892 131.474 10.536C132.034 11.1707 132.314 12.0293 132.314 13.112C132.314 14.1947 132.034 15.058 131.474 15.702C130.923 16.346 130.2 16.668 129.304 16.668ZM129.038 15.73C129.701 15.73 130.228 15.4873 130.62 15.002C131.012 14.5073 131.208 13.8773 131.208 13.112C131.208 12.3467 131.012 11.7213 130.62 11.236C130.228 10.7507 129.701 10.508 129.038 10.508C128.637 10.508 128.245 10.6153 127.862 10.83C127.489 11.0353 127.209 11.2873 127.022 11.586V14.638C127.209 14.946 127.489 15.2073 127.862 15.422C128.245 15.6273 128.637 15.73 129.038 15.73ZM138.716 9.738V10.662H135.034V16.5H133.984V9.738H138.716Z" fill="black" fill-opacity="0.88"/>
<path d="M153 10.4459L152.067 9.5L149 12.6081L145.933 9.5L145 10.4459L149 14.5L153 10.4459Z" fill="#292929"/>
<path d="M199.183 20.9826H191.817C190.861 20.9826 190 20.2174 190 19.1652V4.81739C190 3.86087 190.765 3 191.817 3H199.183C200.139 3 201 3.76522 201 4.81739V19.1652C201 20.1217 200.139 20.9826 199.183 20.9826Z" stroke="black" stroke-miterlimit="10" stroke-linecap="round" stroke-linejoin="round"/>
<path d="M191.722 17.3477H199.278" stroke="black" stroke-miterlimit="10" stroke-linecap="round" stroke-linejoin="round"/>
<path d="M195.357 19.8347C195.726 19.8347 196.026 19.535 196.026 19.1652C196.026 18.7954 195.726 18.4956 195.357 18.4956C194.987 18.4956 194.687 18.7954 194.687 19.1652C194.687 19.535 194.987 19.8347 195.357 19.8347Z" fill="black"/>
<path d="M218.454 15.982C217.819 16.4393 217.026 16.668 216.074 16.668C215.122 16.668 214.324 16.4393 213.68 15.982C213.045 15.5247 212.728 14.9087 212.728 14.134C212.728 13.546 212.938 13.0373 213.358 12.608C213.787 12.1787 214.319 11.8707 214.954 11.684C214.357 11.516 213.862 11.2453 213.47 10.872C213.078 10.4893 212.882 10.0133 212.882 9.444C212.882 8.66 213.199 8.06267 213.834 7.652C214.469 7.232 215.215 7.022 216.074 7.022C216.933 7.022 217.679 7.232 218.314 7.652C218.958 8.06267 219.28 8.66 219.28 9.444C219.28 10.0133 219.084 10.4893 218.692 10.872C218.3 11.2453 217.801 11.516 217.194 11.684C217.829 11.8707 218.356 12.1787 218.776 12.608C219.205 13.0373 219.42 13.546 219.42 14.134C219.42 14.8993 219.098 15.5153 218.454 15.982ZM216.074 11.208C216.261 11.18 216.447 11.1333 216.634 11.068C216.83 11.0027 217.049 10.914 217.292 10.802C217.535 10.6807 217.731 10.5173 217.88 10.312C218.029 10.0973 218.104 9.85933 218.104 9.598C218.104 9.13133 217.908 8.758 217.516 8.478C217.133 8.198 216.653 8.058 216.074 8.058C215.486 8.058 215.001 8.198 214.618 8.478C214.235 8.758 214.044 9.13133 214.044 9.598C214.044 9.85933 214.119 10.0973 214.268 10.312C214.417 10.5173 214.613 10.6807 214.856 10.802C215.099 10.914 215.313 11.0027 215.5 11.068C215.696 11.124 215.887 11.1707 216.074 11.208ZM216.074 15.632C216.671 15.632 217.18 15.4827 217.6 15.184C218.029 14.8853 218.244 14.4933 218.244 14.008C218.244 13.6347 218.095 13.308 217.796 13.028C217.507 12.7387 217.208 12.538 216.9 12.426C216.601 12.3047 216.326 12.23 216.074 12.202C215.822 12.23 215.542 12.3047 215.234 12.426C214.935 12.538 214.637 12.7387 214.338 13.028C214.039 13.308 213.89 13.6347 213.89 14.008C213.89 14.4933 214.1 14.8853 214.52 15.184C214.949 15.4827 215.467 15.632 216.074 15.632ZM230.198 15.982C229.563 16.4393 228.77 16.668 227.818 16.668C226.866 16.668 226.068 16.4393 225.424 15.982C224.789 15.5247 224.472 14.9087 224.472 14.134C224.472 13.546 224.682 13.0373 225.102 12.608C225.531 12.1787 226.063 11.8707 226.698 11.684C226.101 11.516 225.606 11.2453 225.214 10.872C224.822 10.4893 224.626 10.0133 224.626 9.444C224.626 8.66 224.943 8.06267 225.578 7.652C226.213 7.232 226.959 7.022 227.818 7.022C228.677 7.022 229.423 7.232 230.058 7.652C230.702 8.06267 231.024 8.66 231.024 9.444C231.024 10.0133 230.828 10.4893 230.436 10.872C230.044 11.2453 229.545 11.516 228.938 11.684C229.573 11.8707 230.1 12.1787 230.52 12.608C230.949 13.0373 231.164 13.546 231.164 14.134C231.164 14.8993 230.842 15.5153 230.198 15.982ZM227.818 11.208C228.005 11.18 228.191 11.1333 228.378 11.068C228.574 11.0027 228.793 10.914 229.036 10.802C229.279 10.6807 229.475 10.5173 229.624 10.312C229.773 10.0973 229.848 9.85933 229.848 9.598C229.848 9.13133 229.652 8.758 229.26 8.478C228.877 8.198 228.397 8.058 227.818 8.058C227.23 8.058 226.745 8.198 226.362 8.478C225.979 8.758 225.788 9.13133 225.788 9.598C225.788 9.85933 225.863 10.0973 226.012 10.312C226.161 10.5173 226.357 10.6807 226.6 10.802C226.843 10.914 227.057 11.0027 227.244 11.068C227.44 11.124 227.631 11.1707 227.818 11.208ZM227.818 15.632C228.415 15.632 228.924 15.4827 229.344 15.184C229.773 14.8853 229.988 14.4933 229.988 14.008C229.988 13.6347 229.839 13.308 229.54 13.028C229.251 12.7387 228.952 12.538 228.644 12.426C228.345 12.3047 228.07 12.23 227.818 12.202C227.566 12.23 227.286 12.3047 226.978 12.426C226.679 12.538 226.381 12.7387 226.082 13.028C225.783 13.308 225.634 13.6347 225.634 14.008C225.634 14.4933 225.844 14.8853 226.264 15.184C226.693 15.4827 227.211 15.632 227.818 15.632ZM235.533 16.5H234.371V8.702L232.873 10.284L232.173 9.57L234.511 7.162H235.533V16.5ZM243.791 16.5H237.379V15.576C238.35 14.8107 239.101 14.204 239.633 13.756C240.174 13.2987 240.692 12.818 241.187 12.314C241.691 11.8007 242.046 11.348 242.251 10.956C242.456 10.5547 242.559 10.158 242.559 9.766C242.559 9.206 242.368 8.78133 241.985 8.492C241.602 8.20267 241.145 8.058 240.613 8.058C239.54 8.058 238.695 8.45 238.079 9.234L237.365 8.492C237.72 8.02533 238.182 7.666 238.751 7.414C239.33 7.15267 239.95 7.022 240.613 7.022C241.462 7.022 242.195 7.26 242.811 7.736C243.436 8.212 243.749 8.88867 243.749 9.766C243.749 10.634 243.376 11.502 242.629 12.37C241.882 13.2287 240.744 14.26 239.213 15.464H243.791V16.5ZM252.187 16.668C251.44 16.668 250.778 16.5233 250.199 16.234C249.62 15.9447 249.177 15.576 248.869 15.128L249.555 14.4C249.835 14.7733 250.204 15.072 250.661 15.296C251.118 15.52 251.618 15.632 252.159 15.632C252.84 15.632 253.372 15.478 253.755 15.17C254.147 14.8527 254.343 14.4233 254.343 13.882C254.343 13.322 254.133 12.9067 253.713 12.636C253.302 12.3653 252.738 12.23 252.019 12.23C251.468 12.23 251.146 12.2347 251.053 12.244V11.18C251.156 11.1893 251.478 11.194 252.019 11.194C252.654 11.194 253.172 11.068 253.573 10.816C253.984 10.5547 254.189 10.1673 254.189 9.654C254.189 9.15933 253.988 8.772 253.587 8.492C253.195 8.20267 252.7 8.058 252.103 8.058C251.16 8.058 250.339 8.436 249.639 9.192L248.995 8.464C249.788 7.50267 250.852 7.022 252.187 7.022C253.111 7.022 253.867 7.246 254.455 7.694C255.052 8.13267 255.351 8.73933 255.351 9.514C255.351 10.13 255.146 10.6247 254.735 10.998C254.324 11.362 253.858 11.5907 253.335 11.684C253.848 11.7307 254.334 11.9547 254.791 12.356C255.258 12.7573 255.491 13.2987 255.491 13.98C255.491 14.7733 255.192 15.422 254.595 15.926C253.998 16.4207 253.195 16.668 252.187 16.668ZM260.54 16.668C259.924 16.668 259.378 16.528 258.902 16.248C258.435 15.9587 258.062 15.576 257.782 15.1C257.511 14.624 257.306 14.1107 257.166 13.56C257.035 13.0093 256.97 12.4353 256.97 11.838C256.97 11.2407 257.035 10.6667 257.166 10.116C257.306 9.56533 257.511 9.05667 257.782 8.59C258.062 8.114 258.435 7.736 258.902 7.456C259.378 7.16667 259.924 7.022 260.54 7.022C261.147 7.022 261.688 7.16667 262.164 7.456C262.64 7.736 263.013 8.114 263.284 8.59C263.564 9.05667 263.769 9.56533 263.9 10.116C264.04 10.6667 264.11 11.2407 264.11 11.838C264.11 12.4353 264.04 13.0093 263.9 13.56C263.769 14.1107 263.564 14.624 263.284 15.1C263.013 15.576 262.64 15.9587 262.164 16.248C261.688 16.528 261.147 16.668 260.54 16.668ZM259.14 15.058C259.513 15.4407 259.98 15.632 260.54 15.632C261.1 15.632 261.567 15.4407 261.94 15.058C262.313 14.666 262.57 14.1993 262.71 13.658C262.85 13.1167 262.92 12.51 262.92 11.838C262.92 11.166 262.85 10.5593 262.71 10.018C262.57 9.47667 262.313 9.01467 261.94 8.632C261.567 8.24933 261.1 8.058 260.54 8.058C259.98 8.058 259.513 8.24933 259.14 8.632C258.767 9.01467 258.51 9.47667 258.37 10.018C258.23 10.5593 258.16 11.166 258.16 11.838C258.16 12.51 258.23 13.1167 258.37 13.658C258.51 14.1993 258.767 14.666 259.14 15.058ZM268.594 16.654C267.521 16.654 266.657 16.2807 266.004 15.534L266.592 14.666C267.133 15.3007 267.801 15.618 268.594 15.618C269.191 15.618 269.695 15.4313 270.106 15.058C270.517 14.6847 270.806 14.232 270.974 13.7C271.142 13.168 271.226 12.5893 271.226 11.964C271.226 11.796 271.221 11.67 271.212 11.586C270.979 11.9593 270.619 12.2953 270.134 12.594C269.649 12.8927 269.131 13.042 268.58 13.042C267.693 13.042 266.961 12.7853 266.382 12.272C265.803 11.7493 265.514 11.012 265.514 10.06C265.514 9.22 265.813 8.50133 266.41 7.904C267.007 7.30667 267.796 7.008 268.776 7.008C269.411 7.008 269.966 7.13867 270.442 7.4C270.918 7.66133 271.291 8.02067 271.562 8.478C271.842 8.93533 272.047 9.444 272.178 10.004C272.318 10.564 272.388 11.1753 272.388 11.838C272.388 12.7153 272.257 13.5087 271.996 14.218C271.735 14.918 271.31 15.5013 270.722 15.968C270.143 16.4253 269.434 16.654 268.594 16.654ZM268.846 12.034C269.303 12.034 269.742 11.908 270.162 11.656C270.591 11.404 270.927 11.068 271.17 10.648C271.114 9.95733 270.895 9.35067 270.512 8.828C270.129 8.30533 269.569 8.044 268.832 8.044C268.169 8.044 267.647 8.24933 267.264 8.66C266.881 9.07067 266.69 9.52333 266.69 10.018C266.69 10.6713 266.891 11.1707 267.292 11.516C267.693 11.8613 268.211 12.034 268.846 12.034ZM276.88 13.574H273.52V12.65H276.88V13.574ZM283.751 15.982C283.116 16.4393 282.323 16.668 281.371 16.668C280.419 16.668 279.621 16.4393 278.977 15.982C278.342 15.5247 278.025 14.9087 278.025 14.134C278.025 13.546 278.235 13.0373 278.655 12.608C279.084 12.1787 279.616 11.8707 280.251 11.684C279.654 11.516 279.159 11.2453 278.767 10.872C278.375 10.4893 278.179 10.0133 278.179 9.444C278.179 8.66 278.496 8.06267 279.131 7.652C279.766 7.232 280.512 7.022 281.371 7.022C282.23 7.022 282.976 7.232 283.611 7.652C284.255 8.06267 284.577 8.66 284.577 9.444C284.577 10.0133 284.381 10.4893 283.989 10.872C283.597 11.2453 283.098 11.516 282.491 11.684C283.126 11.8707 283.653 12.1787 284.073 12.608C284.502 13.0373 284.717 13.546 284.717 14.134C284.717 14.8993 284.395 15.5153 283.751 15.982ZM281.371 11.208C281.558 11.18 281.744 11.1333 281.931 11.068C282.127 11.0027 282.346 10.914 282.589 10.802C282.832 10.6807 283.028 10.5173 283.177 10.312C283.326 10.0973 283.401 9.85933 283.401 9.598C283.401 9.13133 283.205 8.758 282.813 8.478C282.43 8.198 281.95 8.058 281.371 8.058C280.783 8.058 280.298 8.198 279.915 8.478C279.532 8.758 279.341 9.13133 279.341 9.598C279.341 9.85933 279.416 10.0973 279.565 10.312C279.714 10.5173 279.91 10.6807 280.153 10.802C280.396 10.914 280.61 11.0027 280.797 11.068C280.993 11.124 281.184 11.1707 281.371 11.208ZM281.371 15.632C281.968 15.632 282.477 15.4827 282.897 15.184C283.326 14.8853 283.541 14.4933 283.541 14.008C283.541 13.6347 283.392 13.308 283.093 13.028C282.804 12.7387 282.505 12.538 282.197 12.426C281.898 12.3047 281.623 12.23 281.371 12.202C281.119 12.23 280.839 12.3047 280.531 12.426C280.232 12.538 279.934 12.7387 279.635 13.028C279.336 13.308 279.187 13.6347 279.187 14.008C279.187 14.4933 279.397 14.8853 279.817 15.184C280.246 15.4827 280.764 15.632 281.371 15.632ZM292.6 16.5H286.188V15.576C287.158 14.8107 287.91 14.204 288.442 13.756C288.983 13.2987 289.501 12.818 289.996 12.314C290.5 11.8007 290.854 11.348 291.06 10.956C291.265 10.5547 291.368 10.158 291.368 9.766C291.368 9.206 291.176 8.78133 290.794 8.492C290.411 8.20267 289.954 8.058 289.422 8.058C288.348 8.058 287.504 8.45 286.888 9.234L286.174 8.492C286.528 8.02533 286.99 7.666 287.56 7.414C288.138 7.15267 288.759 7.022 289.422 7.022C290.271 7.022 291.004 7.26 291.62 7.736C292.245 8.212 292.558 8.88867 292.558 9.766C292.558 10.634 292.184 11.502 291.438 12.37C290.691 13.2287 289.552 14.26 288.022 15.464H292.6V16.5ZM297.442 13.574H294.082V12.65H297.442V13.574ZM304.313 15.982C303.679 16.4393 302.885 16.668 301.933 16.668C300.981 16.668 300.183 16.4393 299.539 15.982C298.905 15.5247 298.587 14.9087 298.587 14.134C298.587 13.546 298.797 13.0373 299.217 12.608C299.647 12.1787 300.179 11.8707 300.813 11.684C300.216 11.516 299.721 11.2453 299.329 10.872C298.937 10.4893 298.741 10.0133 298.741 9.444C298.741 8.66 299.059 8.06267 299.693 7.652C300.328 7.232 301.075 7.022 301.933 7.022C302.792 7.022 303.539 7.232 304.173 7.652C304.817 8.06267 305.139 8.66 305.139 9.444C305.139 10.0133 304.943 10.4893 304.551 10.872C304.159 11.2453 303.66 11.516 303.053 11.684C303.688 11.8707 304.215 12.1787 304.635 12.608C305.065 13.0373 305.279 13.546 305.279 14.134C305.279 14.8993 304.957 15.5153 304.313 15.982ZM301.933 11.208C302.12 11.18 302.307 11.1333 302.493 11.068C302.689 11.0027 302.909 10.914 303.151 10.802C303.394 10.6807 303.59 10.5173 303.739 10.312C303.889 10.0973 303.963 9.85933 303.963 9.598C303.963 9.13133 303.767 8.758 303.375 8.478C302.993 8.198 302.512 8.058 301.933 8.058C301.345 8.058 300.86 8.198 300.477 8.478C300.095 8.758 299.903 9.13133 299.903 9.598C299.903 9.85933 299.978 10.0973 300.127 10.312C300.277 10.5173 300.473 10.6807 300.715 10.802C300.958 10.914 301.173 11.0027 301.359 11.068C301.555 11.124 301.747 11.1707 301.933 11.208ZM301.933 15.632C302.531 15.632 303.039 15.4827 303.459 15.184C303.889 14.8853 304.103 14.4933 304.103 14.008C304.103 13.6347 303.954 13.308 303.655 13.028C303.366 12.7387 303.067 12.538 302.759 12.426C302.461 12.3047 302.185 12.23 301.933 12.202C301.681 12.23 301.401 12.3047 301.093 12.426C300.795 12.538 300.496 12.7387 300.197 13.028C299.899 13.308 299.749 13.6347 299.749 14.008C299.749 14.4933 299.959 14.8853 300.379 15.184C300.809 15.4827 301.327 15.632 301.933 15.632ZM312.448 15.982C311.813 16.4393 311.02 16.668 310.068 16.668C309.116 16.668 308.318 16.4393 307.674 15.982C307.039 15.5247 306.722 14.9087 306.722 14.134C306.722 13.546 306.932 13.0373 307.352 12.608C307.781 12.1787 308.313 11.8707 308.948 11.684C308.351 11.516 307.856 11.2453 307.464 10.872C307.072 10.4893 306.876 10.0133 306.876 9.444C306.876 8.66 307.193 8.06267 307.828 7.652C308.463 7.232 309.209 7.022 310.068 7.022C310.927 7.022 311.673 7.232 312.308 7.652C312.952 8.06267 313.274 8.66 313.274 9.444C313.274 10.0133 313.078 10.4893 312.686 10.872C312.294 11.2453 311.795 11.516 311.188 11.684C311.823 11.8707 312.35 12.1787 312.77 12.608C313.199 13.0373 313.414 13.546 313.414 14.134C313.414 14.8993 313.092 15.5153 312.448 15.982ZM310.068 11.208C310.255 11.18 310.441 11.1333 310.628 11.068C310.824 11.0027 311.043 10.914 311.286 10.802C311.529 10.6807 311.725 10.5173 311.874 10.312C312.023 10.0973 312.098 9.85933 312.098 9.598C312.098 9.13133 311.902 8.758 311.51 8.478C311.127 8.198 310.647 8.058 310.068 8.058C309.48 8.058 308.995 8.198 308.612 8.478C308.229 8.758 308.038 9.13133 308.038 9.598C308.038 9.85933 308.113 10.0973 308.262 10.312C308.411 10.5173 308.607 10.6807 308.85 10.802C309.093 10.914 309.307 11.0027 309.494 11.068C309.69 11.124 309.881 11.1707 310.068 11.208ZM310.068 15.632C310.665 15.632 311.174 15.4827 311.594 15.184C312.023 14.8853 312.238 14.4933 312.238 14.008C312.238 13.6347 312.089 13.308 311.79 13.028C311.501 12.7387 311.202 12.538 310.894 12.426C310.595 12.3047 310.32 12.23 310.068 12.202C309.816 12.23 309.536 12.3047 309.228 12.426C308.929 12.538 308.631 12.7387 308.332 13.028C308.033 13.308 307.884 13.6347 307.884 14.008C307.884 14.4933 308.094 14.8853 308.514 15.184C308.943 15.4827 309.461 15.632 310.068 15.632Z" fill="black" fill-opacity="0.88"/>
<path d="M364 6.604H350V22.0134H364V6.604Z" stroke="black" stroke-miterlimit="10" stroke-linecap="round" stroke-linejoin="round"/>
<path d="M353.289 8.48322V4.53691C353.289 3.12752 354.323 2 355.544 2H358.457C359.678 2 360.712 3.12752 360.712 4.53691V8.48322" stroke="black" stroke-miterlimit="10" stroke-linecap="round" stroke-linejoin="round"/>
<path d="M379.348 16.5H375.092V7.162H379.25C380.053 7.162 380.687 7.38133 381.154 7.82C381.63 8.25867 381.868 8.83267 381.868 9.542C381.868 10.102 381.709 10.578 381.392 10.97C381.075 11.3527 380.687 11.5907 380.23 11.684C380.725 11.7587 381.149 12.02 381.504 12.468C381.868 12.916 382.05 13.42 382.05 13.98C382.05 14.736 381.807 15.3473 381.322 15.814C380.846 16.2713 380.188 16.5 379.348 16.5ZM379.054 11.208C379.567 11.208 379.964 11.068 380.244 10.788C380.524 10.508 380.664 10.1487 380.664 9.71C380.664 9.27133 380.519 8.912 380.23 8.632C379.95 8.34267 379.558 8.198 379.054 8.198H376.254V11.208H379.054ZM379.11 15.464C379.651 15.464 380.076 15.3193 380.384 15.03C380.692 14.7407 380.846 14.3487 380.846 13.854C380.846 13.3967 380.692 13.014 380.384 12.706C380.085 12.398 379.661 12.244 379.11 12.244H376.254V15.464H379.11ZM393.414 16.5H392.07L389.634 13.462L388.514 14.568V16.5H387.464V9.738H388.514V13.336L392.07 9.738H393.4L390.404 12.804L393.414 16.5ZM399.99 15.646C399.384 16.3273 398.576 16.668 397.568 16.668C396.56 16.668 395.748 16.3273 395.132 15.646C394.526 14.9647 394.222 14.12 394.222 13.112C394.222 12.104 394.526 11.264 395.132 10.592C395.748 9.91067 396.56 9.57 397.568 9.57C398.576 9.57 399.384 9.91067 399.99 10.592C400.606 11.264 400.914 12.104 400.914 13.112C400.914 14.12 400.606 14.9647 399.99 15.646ZM395.916 14.974C396.327 15.478 396.878 15.73 397.568 15.73C398.259 15.73 398.805 15.478 399.206 14.974C399.608 14.4607 399.808 13.84 399.808 13.112C399.808 12.384 399.608 11.768 399.206 11.264C398.805 10.76 398.259 10.508 397.568 10.508C396.878 10.508 396.327 10.7647 395.916 11.278C395.515 11.782 395.314 12.3933 395.314 13.112C395.314 13.84 395.515 14.4607 395.916 14.974ZM405.958 16.668C405.006 16.668 404.246 16.2713 403.676 15.478V19.076H402.626V9.738H403.676V10.746C403.928 10.3913 404.255 10.1067 404.656 9.892C405.058 9.67733 405.492 9.57 405.958 9.57C406.854 9.57 407.578 9.892 408.128 10.536C408.688 11.1707 408.968 12.0293 408.968 13.112C408.968 14.1947 408.688 15.058 408.128 15.702C407.578 16.346 406.854 16.668 405.958 16.668ZM405.692 15.73C406.355 15.73 406.882 15.4873 407.274 15.002C407.666 14.5073 407.862 13.8773 407.862 13.112C407.862 12.3467 407.666 11.7213 407.274 11.236C406.882 10.7507 406.355 10.508 405.692 10.508C405.291 10.508 404.899 10.6153 404.516 10.83C404.143 11.0353 403.863 11.2873 403.676 11.586V14.638C403.863 14.946 404.143 15.2073 404.516 15.422C404.899 15.6273 405.291 15.73 405.692 15.73ZM413.032 16.668C411.735 16.668 410.717 16.2993 409.98 15.562L410.498 14.89C411.133 15.4967 411.977 15.8 413.032 15.8C413.639 15.8 414.119 15.6927 414.474 15.478C414.838 15.2633 415.02 14.9787 415.02 14.624C415.02 13.8773 414.311 13.504 412.892 13.504H411.38V12.65H412.892C413.48 12.65 413.961 12.5567 414.334 12.37C414.707 12.174 414.894 11.8893 414.894 11.516C414.894 11.1987 414.707 10.942 414.334 10.746C413.961 10.5407 413.489 10.438 412.92 10.438C411.977 10.438 411.221 10.7273 410.652 11.306L410.106 10.662C410.806 9.94333 411.73 9.584 412.878 9.584C413.802 9.57467 414.549 9.73333 415.118 10.06C415.697 10.3773 415.986 10.8207 415.986 11.39C415.986 11.8567 415.795 12.2347 415.412 12.524C415.039 12.8133 414.623 12.986 414.166 13.042C414.642 13.0793 415.085 13.238 415.496 13.518C415.916 13.798 416.126 14.19 416.126 14.694C416.126 15.2727 415.846 15.7487 415.286 16.122C414.735 16.486 413.984 16.668 413.032 16.668ZM418.837 16.5H417.829V9.738H418.879V14.904L422.421 9.738H423.457V16.5H422.407V11.236L418.837 16.5ZM426.604 16.5H425.554V9.738H426.604V12.552H430.132V9.738H431.182V16.5H430.132V13.476H426.604V16.5ZM436.331 16.668C435.323 16.668 434.497 16.3413 433.853 15.688C433.209 15.0253 432.887 14.1667 432.887 13.112C432.887 12.1227 433.204 11.2873 433.839 10.606C434.473 9.91533 435.267 9.57 436.219 9.57C437.217 9.57 438.006 9.91533 438.585 10.606C439.173 11.2873 439.467 12.1507 439.467 13.196V13.462H433.993C434.039 14.1247 434.282 14.68 434.721 15.128C435.159 15.576 435.729 15.8 436.429 15.8C437.269 15.8 437.964 15.5153 438.515 14.946L439.019 15.632C438.328 16.3227 437.432 16.668 436.331 16.668ZM438.431 12.692C438.421 12.1133 438.225 11.5953 437.843 11.138C437.46 10.6713 436.914 10.438 436.205 10.438C435.533 10.438 435.001 10.6667 434.609 11.124C434.226 11.5813 434.021 12.104 433.993 12.692H438.431ZM446.947 18.796L446.317 19.286C445.001 17.4847 444.343 15.422 444.343 13.098C444.343 10.7833 445.001 8.72067 446.317 6.91L446.947 7.386C446.452 8.366 446.083 9.29 445.841 10.158C445.607 11.026 445.491 12.006 445.491 13.098C445.491 14.19 445.607 15.1747 445.841 16.052C446.083 16.92 446.452 17.8347 446.947 18.796ZM453.247 16.5H452.085V14.134H447.647V13.168L451.651 7.162H453.247V13.112H454.563V14.134H453.247V16.5ZM452.085 13.112V8.24L448.809 13.112H452.085ZM461.947 16.5H460.897V10.662H458.937V9.738H463.921V10.662H461.947V16.5ZM470.674 15.646C470.067 16.3273 469.26 16.668 468.252 16.668C467.244 16.668 466.432 16.3273 465.816 15.646C465.209 14.9647 464.906 14.12 464.906 13.112C464.906 12.104 465.209 11.264 465.816 10.592C466.432 9.91067 467.244 9.57 468.252 9.57C469.26 9.57 470.067 9.91067 470.674 10.592C471.29 11.264 471.598 12.104 471.598 13.112C471.598 14.12 471.29 14.9647 470.674 15.646ZM466.6 14.974C467.011 15.478 467.561 15.73 468.252 15.73C468.943 15.73 469.489 15.478 469.89 14.974C470.291 14.4607 470.492 13.84 470.492 13.112C470.492 12.384 470.291 11.768 469.89 11.264C469.489 10.76 468.943 10.508 468.252 10.508C467.561 10.508 467.011 10.7647 466.6 11.278C466.199 11.782 465.998 12.3933 465.998 13.112C465.998 13.84 466.199 14.4607 466.6 14.974ZM477.104 16.5H473.31V9.738H477.034C477.622 9.738 478.084 9.89667 478.42 10.214C478.765 10.5313 478.938 10.9513 478.938 11.474C478.938 11.8567 478.83 12.188 478.616 12.468C478.41 12.7387 478.154 12.9207 477.846 13.014C478.191 13.098 478.48 13.2987 478.714 13.616C478.956 13.9333 479.078 14.2833 479.078 14.666C479.078 15.2167 478.9 15.66 478.546 15.996C478.2 16.332 477.72 16.5 477.104 16.5ZM476.894 15.576C477.23 15.576 477.496 15.4827 477.692 15.296C477.888 15.1093 477.986 14.8573 477.986 14.54C477.986 14.2507 477.888 14.0033 477.692 13.798C477.496 13.5927 477.23 13.49 476.894 13.49H474.36V15.576H476.894ZM476.852 12.566C477.169 12.566 477.416 12.482 477.594 12.314C477.771 12.1367 477.86 11.908 477.86 11.628C477.86 11.3293 477.771 11.096 477.594 10.928C477.416 10.7507 477.169 10.662 476.852 10.662H474.36V12.566H476.852ZM486.34 16.5H485.29V15.73C484.72 16.3553 483.974 16.668 483.05 16.668C482.424 16.668 481.874 16.4673 481.398 16.066C480.922 15.6647 480.684 15.1187 480.684 14.428C480.684 13.7187 480.917 13.1727 481.384 12.79C481.86 12.398 482.415 12.202 483.05 12.202C484.011 12.202 484.758 12.51 485.29 13.126V11.908C485.29 11.46 485.131 11.11 484.814 10.858C484.496 10.606 484.086 10.48 483.582 10.48C482.788 10.48 482.098 10.7927 481.51 11.418L481.02 10.69C481.738 9.94333 482.639 9.57 483.722 9.57C484.496 9.57 485.126 9.75667 485.612 10.13C486.097 10.5033 486.34 11.0773 486.34 11.852V16.5ZM483.428 15.912C484.268 15.912 484.888 15.632 485.29 15.072V13.798C484.888 13.238 484.268 12.958 483.428 12.958C482.942 12.958 482.541 13.098 482.224 13.378C481.916 13.6487 481.762 14.0033 481.762 14.442C481.762 14.8713 481.916 15.226 482.224 15.506C482.541 15.7767 482.942 15.912 483.428 15.912ZM491.777 16.668C490.825 16.668 490.064 16.2713 489.495 15.478V19.076H488.445V9.738H489.495V10.746C489.747 10.3913 490.073 10.1067 490.475 9.892C490.876 9.67733 491.31 9.57 491.777 9.57C492.673 9.57 493.396 9.892 493.947 10.536C494.507 11.1707 494.787 12.0293 494.787 13.112C494.787 14.1947 494.507 15.058 493.947 15.702C493.396 16.346 492.673 16.668 491.777 16.668ZM491.511 15.73C492.173 15.73 492.701 15.4873 493.093 15.002C493.485 14.5073 493.681 13.8773 493.681 13.112C493.681 12.3467 493.485 11.7213 493.093 11.236C492.701 10.7507 492.173 10.508 491.511 10.508C491.109 10.508 490.717 10.6153 490.335 10.83C489.961 11.0353 489.681 11.2873 489.495 11.586V14.638C489.681 14.946 489.961 15.2073 490.335 15.422C490.717 15.6273 491.109 15.73 491.511 15.73ZM501.734 16.5H500.684V15.73C500.115 16.3553 499.368 16.668 498.444 16.668C497.819 16.668 497.268 16.4673 496.792 16.066C496.316 15.6647 496.078 15.1187 496.078 14.428C496.078 13.7187 496.312 13.1727 496.778 12.79C497.254 12.398 497.81 12.202 498.444 12.202C499.406 12.202 500.152 12.51 500.684 13.126V11.908C500.684 11.46 500.526 11.11 500.208 10.858C499.891 10.606 499.48 10.48 498.976 10.48C498.183 10.48 497.492 10.7927 496.904 11.418L496.414 10.69C497.133 9.94333 498.034 9.57 499.116 9.57C499.891 9.57 500.521 9.75667 501.006 10.13C501.492 10.5033 501.734 11.0773 501.734 11.852V16.5ZM498.822 15.912C499.662 15.912 500.283 15.632 500.684 15.072V13.798C500.283 13.238 499.662 12.958 498.822 12.958C498.337 12.958 497.936 13.098 497.618 13.378C497.31 13.6487 497.156 14.0033 497.156 14.442C497.156 14.8713 497.31 15.226 497.618 15.506C497.936 15.7767 498.337 15.912 498.822 15.912ZM503.657 19.286L503.027 18.796C503.522 17.8347 503.89 16.92 504.133 16.052C504.376 15.1747 504.497 14.19 504.497 13.098C504.497 11.9967 504.376 11.012 504.133 10.144C503.89 9.276 503.522 8.35667 503.027 7.386L503.657 6.91C504.982 8.71133 505.645 10.774 505.645 13.098C505.645 15.4313 504.982 17.494 503.657 19.286Z" fill="black" fill-opacity="0.88"/>
<circle cx="363.5" cy="18.5" r="6.5" fill="black"/>
<path d="M364.532 22H363.702V20.31H360.532V19.62L363.392 15.33H364.532V19.58H365.472V20.31H364.532V22ZM363.702 19.58V16.1L361.362 19.58H363.702Z" fill="white"/>
<path d="M617.118 12.4706C619.454 12.4706 621.353 10.571 621.353 8.23528C621.353 5.89952 619.454 4 617.118 4C614.782 4 612.883 5.89952 612.883 8.23528C612.883 10.571 614.782 12.4706 617.118 12.4706ZM617.118 6.11764C618.286 6.11764 619.236 7.0674 619.236 8.23528C619.236 9.40316 618.286 10.3529 617.118 10.3529C615.95 10.3529 615 9.40316 615 8.23528C615 7.0674 615.95 6.11764 617.118 6.11764Z" fill="black"/>
<path d="M622.916 11.8253C622.488 11.4313 621.797 11.4313 621.37 11.8253C619.026 13.9862 615.211 13.9862 612.866 11.8253C612.439 11.4313 611.748 11.4313 611.321 11.8253C610.893 12.2194 610.893 12.8564 611.321 13.2515C612.68 14.5052 614.404 15.2198 616.182 15.4063L613.065 18.2797C612.638 18.6737 612.638 19.3107 613.065 19.7048C613.493 20.0989 614.184 20.0989 614.611 19.7048L617.118 17.3938L619.624 19.7048C619.837 19.9013 620.117 20.0001 620.397 20.0001C620.677 20.0001 620.957 19.9013 621.17 19.7048C621.597 19.3107 621.597 18.6737 621.17 18.2797L618.053 15.4063C619.831 15.2198 621.555 14.5052 622.915 13.2515C623.342 12.8574 623.342 12.2194 622.916 11.8253Z" fill="black"/>
<path fill-rule="evenodd" clip-rule="evenodd" d="M582.342 17.4535H583.349C583.349 17.4535 583.653 17.4202 583.809 17.2528C583.952 17.0991 583.947 16.8105 583.947 16.8105C583.947 16.8105 583.927 15.4596 584.554 15.2607C585.172 15.0647 585.966 16.5663 586.807 17.1437C587.444 17.5807 587.927 17.4849 587.927 17.4849L590.176 17.4535C590.176 17.4535 591.353 17.3811 590.795 16.4559C590.749 16.3802 590.47 15.7715 589.123 14.5207C587.712 13.2116 587.901 13.4234 589.6 11.1589C590.635 9.77983 591.048 8.93789 590.919 8.57728C590.796 8.23383 590.035 8.32461 590.035 8.32461L587.502 8.34039C587.502 8.34039 587.315 8.31478 587.175 8.39801C587.039 8.47964 586.952 8.66989 586.952 8.66989C586.952 8.66989 586.551 9.73707 586.016 10.6446C584.888 12.5597 584.437 12.6608 584.253 12.5419C583.824 12.2647 583.931 11.4285 583.931 10.8344C583.931 8.97859 584.213 8.20479 583.383 8.00448C583.108 7.93794 582.905 7.89404 582.201 7.88695C581.298 7.87757 580.533 7.88969 580.1 8.10189C579.812 8.24298 579.589 8.55739 579.725 8.57546C579.892 8.59786 580.271 8.67767 580.472 8.95138C580.732 9.30443 580.723 10.0974 580.723 10.0974C580.723 10.0974 580.872 12.2821 580.374 12.5535C580.033 12.7396 579.565 12.3596 578.559 10.6222C578.044 9.73226 577.655 8.74855 577.655 8.74855C577.655 8.74855 577.58 8.56471 577.446 8.46638C577.284 8.34725 577.057 8.30929 577.057 8.30929L574.65 8.32507C574.65 8.32507 574.289 8.33513 574.157 8.49222C574.039 8.63194 574.147 8.92097 574.147 8.92097C574.147 8.92097 576.031 13.3291 578.165 15.5506C580.121 17.5873 582.342 17.4535 582.342 17.4535Z" fill="black"/>
<path d="M554.973 6.04684L540.34 11.1234C539.866 11.2878 539.895 11.8933 540.383 12.0216L544.101 12.9991L545.489 16.9192C545.634 17.3287 546.217 17.4529 546.554 17.1461L548.477 15.3986L552.249 17.8636C552.71 18.1652 553.368 17.9411 553.485 17.4421L555.983 6.80846C556.106 6.28759 555.53 5.85363 554.973 6.04684ZM553.139 8.40672L546.341 13.7577C546.274 13.811 546.231 13.8848 546.221 13.9649L545.959 16.0358C545.95 16.1034 545.844 16.1123 545.821 16.0474L544.745 12.9589C544.695 12.8174 544.76 12.6642 544.901 12.5862L552.928 8.15443C553.112 8.05243 553.301 8.27865 553.139 8.40672Z" fill="black"/>
</svg>
